<svg id="Layer_2" data-name="Layer 2" xmlns="http://www.w3.org/2000/svg" viewBox="0 0 119.75 122.55">
  <defs>
    <style>
      .cls-1 {
        opacity: .39;
      }

      .cls-1, .cls-2, .cls-3, .cls-4, .cls-5 {
        fill: #fff;
        stroke-width: 0px;
      }

      .cls-1, .cls-2, .cls-4, .cls-5 {
        isolation: isolate;
      }

      .cls-2 {
        opacity: .26;
      }

      .cls-4 {
        opacity: .51;
      }

      .cls-5 {
        opacity: .6;
      }
    </style>
  </defs>
  <g id="Layer_1-2" data-name="Layer 1">
    <g>
      <path class="cls-3" d="M111.24,83.66c-2.48-2.48-5.4-4.22-8.51-5.26,0,0-.07-.07-.19-.07-2-.66-4.15-1.04-6.29-1.11-12.02-3.11-37.63-15.07-51.54-61.02,0,0-3.18-5.99-5.78-8.58C30.27-1.03,16.36-1.03,7.73,7.62-.92,16.2-.92,30.16,7.73,38.81c3.96,3.96,9.1,6.11,14.24,6.37,12.87,5.66,35.67,20.98,53.17,62.13,1.11,2.73,2.73,5.33,4.93,7.54,8.58,8.58,22.54,8.58,31.19,0,8.58-8.58,8.58-22.54,0-31.19h-.02Z"/>
      <path class="cls-3" d="M111.24,83.66c-2.48-2.48-5.4-4.22-8.51-5.26,0,0-.07-.07-.19-.07-1.23-.4-2.48-.66-3.7-.85-2.92-.45-5.85-1.11-8.58-2.22-12.73-5.14-32.37-18.79-44.37-55.31-1.04-3.18-2.48-6.25-4.41-9.03-.85-1.23-1.74-2.4-2.59-3.25C30.2-.96,16.31-.96,7.66,7.67-.99,16.27-.99,30.23,7.66,38.88c3.07,3.06,6.77,5,10.66,5.92,3.7.85,7.29,2.15,10.59,4.1,13.13,7.73,31.52,24.05,46.14,58.49,1.11,2.73,2.73,5.33,4.93,7.54,8.58,8.58,22.54,8.58,31.19,0,8.65-8.65,8.65-22.61.07-31.26v-.02Z"/>
      <path class="cls-1" d="M21.95,8.13c.45-.07,8.18-2,13.2,5,4.67,6.55,7.59,17.28,12.87,25.98,3.84,6.37,10.33,16.65,16.65,22.54,6.44,6.04,12.61,7.66,12.92,7.66,1.7,0-6.04-5-12.92-12.92-4.62-5.33-7.92-12.66-10.92-17.8-8.18-13.72-14.29-30.41-14.88-31C30.09-.83,16.32-1.04,7.66,7.59-.92,16.19-3.96,32.3,15.51,43.61c0,0-11.58-20.13-3.32-28.79,3.32-3.44,5.59-5.92,9.74-6.7h.02Z"/>
      <path class="cls-2" d="M111.23,83.65c-1.44-1.44,1.44,14.55-2.85,22.28-3.11,5.66-14.88,9.88-20.65,6.63-7.8-2-12.35-24.24-24.69-40.62-8.39-10.92-27.56-24.69-25.2-17.09,2.59,8.65,11.62-1.44,37.37,52.44,1.11,2.74,2.73,5.33,4.93,7.54,8.58,8.58,23.27,9.74,31.85,1.18,8.58-8.65,7.87-23.72-.71-32.37h-.05v.02Z"/>
      <path class="cls-3" d="M95.6,122.53c-5.94,0-11.88-2.26-16.41-6.77-2.22-2.24-3.96-4.9-5.19-7.95-14.59-34.21-32.91-50.38-45.72-57.93-2.99-1.77-6.34-3.07-10.26-3.96-4.27-1.01-8.16-3.16-11.22-6.22C2.4,35.3,0,29.42,0,23.2S2.45,11.2,6.84,6.84C15.89-2.22,30.63-2.22,39.7,6.84c.8.8,1.7,1.91,2.74,3.42,1.89,2.71,3.42,5.87,4.55,9.34,11.58,35.2,30.15,49.11,43.69,54.58,2.36.94,5,1.63,8.32,2.15,1.41.21,2.59.5,3.7.83h.31l.24.19c3.35,1.13,6.32,2.99,8.82,5.49l.35.38c8.65,9.1,8.53,23.6-.33,32.58-4.55,4.5-10.52,6.77-16.46,6.77l-.02-.02ZM23.27,2.41c-5.35,0-10.7,2.03-14.78,6.11-3.96,3.91-6.13,9.15-6.15,14.69,0,5.59,2.17,10.85,6.15,14.83,2.76,2.76,6.25,4.69,10.09,5.61,4.13.94,7.71,2.33,10.92,4.24,13.11,7.71,31.85,24.21,46.68,59.04,1.11,2.76,2.69,5.16,4.69,7.17,8.11,8.11,21.36,8.09,29.52,0,8.09-8.16,8.09-21.43,0-29.59l-.33-.35c-2.22-2.1-4.79-3.65-7.71-4.64l-.28-.09c-1.01-.33-2.1-.57-3.42-.78-3.51-.54-6.32-1.27-8.84-2.29-14-5.66-33.2-19.97-45.06-56.04-1.06-3.25-2.5-6.2-4.27-8.72-.97-1.39-1.77-2.4-2.45-3.09-4.08-4.06-9.43-6.08-14.76-6.08Z"/>
      <path class="cls-4" d="M30.16,13.91c0,2.15-2.07,3.84-4.67,3.84s-4.67-1.7-4.67-3.84,2.07-3.84,4.67-3.84,4.67,1.74,4.67,3.84Z"/>
      <path class="cls-5" d="M95.98,121.26c-6.11,0-12.12-2.52-16.55-6.96-2.24-2.24-5.61-10.02-5.99-10.92-6.74-15.77-14.31-26.01-20.18-33.17-7.64-9.27-15.89-16.57-24.59-21.71-3.14-1.79-6.67-3.16-10.52-4.01-4.06-.94-7.71-2.97-10.56-5.82-4.22-4.24-6.58-9.71-6.58-15.42S3.35,12.08,7.59,7.83c8.72-8.65,22.99-8.56,31.76.21,2.76,2.78,5.19,8.39,6.13,11.48.07.19,5.87,19.12,15.87,32.11,8.3,11.08,17.42,17.59,23.62,21.08,4.17,2.29,8.89,3.82,14,4.53.78.12,1.46.28,2.17.5,1.27.5,7.14,2.83,9.55,5.23,8.91,8.94,9.12,23.29.45,32.04-4.03,4.06-9.43,6.27-15.18,6.3h-.02l.05-.05ZM23.32,3.75c-5.09,0-10.19,1.91-14.05,5.75-3.8,3.8-5.89,8.68-5.89,13.75s2.1,9.95,5.89,13.77c2.57,2.57,5.82,4.36,9.43,5.21,4.03.92,7.8,2.36,11.18,4.27,8.94,5.28,17.42,12.76,25.23,22.26,5.97,7.29,13.67,17.71,20.51,33.74.97,2.29,3.84,8.54,5.47,10.16,3.98,3.98,9.41,6.25,14.88,6.25h.02c5.14,0,9.93-2,13.51-5.59,7.76-7.83,7.54-20.68-.45-28.67-1.72-1.74-6.22-3.75-8.61-4.67-.54-.14-1.13-.28-1.79-.4-5.38-.75-10.35-2.36-14.81-4.79-6.41-3.61-15.82-10.3-24.36-21.71-10.26-13.32-16.01-32.06-16.24-32.84-.85-2.76-3.11-8.04-5.56-10.49-3.96-3.96-9.17-5.96-14.38-5.96l.02-.02Z"/>
      <path class="cls-3" d="M6.82,112.11c-7.33-7.33-7.33-19.17,0-26.52,7.33-7.33,19.17-7.33,26.52,0,7.33,7.33,7.33,19.17,0,26.52-7.29,7.29-19.17,7.29-26.52,0Z"/>
      <path class="cls-2" d="M4.48,110.42c-3.84-3.77,7.66.97,17.61.4,3.96-.19,10.47-1.11,11.69-7.14,1.04-5.19,4.81-11.1,5.07-8.84.19,1.37,1.74,9.95-5.52,17.21-7.29,7.33-21.5,5.66-28.86-1.63Z"/>
      <path class="cls-1" d="M14.55,89.17c-7.54,5.14-8.91,20.35-11.76,16.24-3.77-5.4-3.77-11.95,3.51-19.31,7.33-7.33,20.94-6.96,28.79,3.37,3.25,4.22-7.66-9.1-20.54-.33v.02Z"/>
      <path class="cls-3" d="M20.11,118.73c-5.09,0-10.21-1.93-14.12-5.8-7.76-7.76-7.76-20.42,0-28.2,7.76-7.76,20.42-7.76,28.2,0,7.76,7.76,7.76,20.42,0,28.2-3.87,3.87-8.96,5.8-14.08,5.8ZM7.64,111.28c6.88,6.81,18.04,6.81,24.85,0,6.84-6.86,6.84-18.01,0-24.85-6.86-6.84-18.01-6.84-24.85,0-6.84,6.86-6.84,18.01,0,24.85Z"/>
      <path class="cls-4" d="M28.98,92.68c0,1.63-1.49,2.92-3.37,2.92s-3.37-1.3-3.37-2.92,1.49-2.92,3.37-2.92,3.37,1.3,3.37,2.92Z"/>
      <path class="cls-3" d="M99.54,9.15c1.77,0,3.32-1.01,4.08-2.5.78.21,1.56.47,2.29.78,5.85,2.5,9.95,8.3,9.95,15.04,0,.64-.05,1.27-.12,1.89,1.08.09,2.12.45,3.07,1.01.14-.94.21-1.91.21-2.88,0-8.28-5.19-15.37-12.5-18.2-.83-.31-1.65-.57-2.52-.78-.47-2.03-2.31-3.51-4.46-3.51s-3.98,1.51-4.46,3.51c-.07.33-.12.71-.12,1.06,0,.75.19,1.46.52,2.1.75,1.49,2.31,2.5,4.08,2.5h-.02v-.02ZM98.1,4.55c0-.78.64-1.44,1.44-1.44s1.44.64,1.44,1.44-.64,1.44-1.44,1.44-1.44-.64-1.44-1.44Z"/>
      <path class="cls-3" d="M118.24,27.91c-.78-.71-1.82-1.16-2.95-1.2h-.14c-2.52,0-4.6,2.05-4.6,4.6,0,.92.26,1.77.73,2.48-.57.59-1.16,1.13-1.79,1.63-2.76,2.12-6.22,3.4-9.95,3.4s-7.12-1.25-9.88-3.32c-.66.87-1.49,1.58-2.45,2.07,3.37,2.76,7.66,4.41,12.33,4.41s9.01-1.67,12.38-4.46c.68-.57,1.32-1.16,1.91-1.79.42.12.87.19,1.32.19,2.52,0,4.6-2.05,4.6-4.6,0-1.34-.59-2.55-1.51-3.4ZM113.74,31.31c0-.78.64-1.44,1.44-1.44s1.44.64,1.44,1.44-.64,1.44-1.44,1.44-1.44-.64-1.44-1.44Z"/>
      <path class="cls-3" d="M87.85,33.86c.5-.73.78-1.6.78-2.55,0-2.52-2.05-4.6-4.6-4.6h-.26c-.21-.78-.35-1.56-.45-2.38-.07-.61-.12-1.25-.12-1.89,0-6.74,4.1-12.54,9.95-15.04-.4-.9-.61-1.89-.61-2.88v-.28c-7.31,2.81-12.5,9.9-12.5,18.2,0,1.01.07,1.98.24,2.95.14.87.33,1.74.59,2.59-.87.83-1.39,2-1.39,3.3,0,2.52,2.05,4.6,4.6,4.6.42,0,.83-.05,1.23-.17,1.06-.31,1.98-.97,2.59-1.86h-.05ZM84.03,32.72c-.78,0-1.44-.64-1.44-1.44s.64-1.44,1.44-1.44,1.44.64,1.44,1.44-.64,1.44-1.44,1.44Z"/>
      <path class="cls-3" d="M99.62,33.29c-5.99,0-10.87-4.88-10.87-10.87s4.88-10.87,10.87-10.87,10.87,4.88,10.87,10.87-4.88,10.87-10.87,10.87ZM99.62,15.84c-3.63,0-6.58,2.95-6.58,6.58s2.95,6.58,6.58,6.58,6.58-2.95,6.58-6.58-2.95-6.58-6.58-6.58Z"/>
    </g>
  </g>
</svg>